<svg aria-hidden="true" style="position: absolute; width: 0; height: 0; overflow: hidden;" version="1.1" xmlns="http://www.w3.org/2000/svg" xmlns:xlink="http://www.w3.org/1999/xlink">
<defs>
<symbol id="icon-comments" viewBox="0 0 37 32">
<path fill="#525252" style="fill: var(--color1, #525252)" d="M18.286 0c-10.1 0-18.286 6.654-18.286 14.857 0.056 3.674 1.606 6.975 4.067 9.331l0.005 0.005c-0.84 2.656-2.182 4.943-3.927 6.856l0.013-0.014c-0.096 0.102-0.156 0.239-0.156 0.391 0 0.084 0.018 0.163 0.051 0.235l-0.001-0.004c0.087 0.203 0.285 0.343 0.516 0.343 0.002 0 0.003 0 0.005-0h-0c3.829-0.067 7.324-1.442 10.072-3.694l-0.029 0.023c2.271 0.877 4.899 1.386 7.645 1.386 0.009 0 0.018 0 0.027-0h-0.001c10.1 0 18.286-6.65 18.286-14.857s-8.186-14.857-18.286-14.857zM9.143 17.143c-1.262 0-2.286-1.023-2.286-2.286s1.023-2.286 2.286-2.286c1.262 0 2.286 1.023 2.286 2.286v0c0 0.001 0 0.001 0 0.002 0 1.261-1.022 2.284-2.284 2.284-0.001 0-0.001 0-0.002 0h0zM18.286 17.143c-1.262 0-2.286-1.023-2.286-2.286s1.023-2.286 2.286-2.286c1.262 0 2.286 1.023 2.286 2.286v0c0 0.001 0 0.001 0 0.002 0 1.261-1.022 2.284-2.284 2.284-0.001 0-0.001 0-0.002 0h0zM27.429 17.143c-1.262 0-2.286-1.023-2.286-2.286s1.023-2.286 2.286-2.286c1.262 0 2.286 1.023 2.286 2.286v0c0 0.001 0 0.001 0 0.002 0 1.261-1.022 2.284-2.284 2.284-0.001 0-0.001 0-0.002 0h0z"></path>
</symbol>
<symbol id="icon-about-book" viewBox="0 0 22 32">
<path fill="none" stroke="#e7bb92" style="stroke: var(--color2, #e7bb92)" stroke-linejoin="round" stroke-linecap="round" stroke-miterlimit="4" stroke-width="2.1893" d="M21.126 4.287c0 0.009 0 0.020 0 0.031 0 1.735-1.398 3.144-3.128 3.161h-16.903"></path>
<path fill="none" stroke="#e7bb92" style="stroke: var(--color2, #e7bb92)" stroke-linejoin="round" stroke-linecap="round" stroke-miterlimit="4" stroke-width="2.1893" d="M17.996 30.905h-16.901v-29.811h16.901c1.729 0 3.13 1.668 3.13 3.726v22.358c0 2.058-1.401 3.726-3.13 3.726z"></path>
</symbol>
<symbol id="icon-polymer" viewBox="0 0 45 32">
<path d="M36.031 0h-7.791l-15.36 25.26-5.090-9.26 8.771-16h-7.791l-8.769 16 8.769 16h7.79l15.37-25.26 5.082 9.26-8.771 16h7.79l8.771-16z"></path>
</symbol>
<symbol id="icon-sass" viewBox="0 0 47 32">
<path d="M46.526 22.646c-0.181-1.243-0.883-2.293-1.874-2.937l-0.016-0.010c0.259 0.185 0.48 0.343 0 0-0.653-0.467-0.308-0.22 0 0-2.586-1.845-5.971-1.435-8.792-0.41-0.602-0.874-0.961-1.956-0.961-3.121 0-0.775 0.159-1.513 0.446-2.183l-0.014 0.036c0.084-0.259 0.027-0.396-0.238-0.509-0.32-0.098-0.688-0.155-1.069-0.155-0.418 0-0.819 0.068-1.195 0.194l0.027-0.008c-0.214 0.033-0.384 0.19-0.435 0.395l-0.001 0.004c-0.716 2.33-1.798 4.353-3.195 6.115l0.029-0.038c-0.422-0.753-0.671-1.653-0.671-2.611 0-0.783 0.166-1.527 0.465-2.198l-0.014 0.034c0.025-0.043 0.040-0.095 0.040-0.151 0-0.137-0.090-0.253-0.213-0.292l-0.002-0.001c-0.333-0.117-0.718-0.184-1.118-0.184-0.438 0-0.857 0.081-1.244 0.228l0.024-0.008c-0.776 0.226-1.939 4.055-2.307 4.814-0.776 1.585-1.462 4.061-2.781 5.318-1.118-1.436 2.048-4.683 0.989-5.986-0.18-0.207-0.443-0.337-0.737-0.337-0.267 0-0.509 0.107-0.685 0.281l0-0c0.058-0.243 0.091-0.522 0.091-0.808 0-0.329-0.044-0.647-0.125-0.95l0.006 0.025c-0.152-0.557-0.654-0.96-1.249-0.96-0.043 0-0.086 0.002-0.128 0.006l0.005-0c-1.672 0.23-3.102 1.115-4.047 2.384l-0.011 0.016c-0.935 1.1-3.398 1.784-4.723 2.447-2.276-1.982-7.202-4.086-7.33-7.462-0.138-3.804 4.396-6.386 7.418-7.93 3.936-2.012 9.998-4.512 14.469-2.314 0.862 0.421 1.445 1.291 1.445 2.297 0 0.262-0.040 0.515-0.113 0.753l0.005-0.018c-0.852 3.124-4.291 5.208-7.282 6.165-1.287 0.465-2.771 0.733-4.319 0.733-0.115 0-0.229-0.001-0.344-0.004l0.017 0c-1.485-0.178-2.822-0.699-3.965-1.482l0.030 0.020c-0.186-0.035-0.172 0.206-0.123 0.334 2.166 5.676 13.128 1.517 15.996-1.398 1.347-1.26 2.277-2.951 2.571-4.852l0.006-0.047c0.023-0.17 0.036-0.366 0.036-0.566 0-1.885-1.171-3.497-2.824-4.148l-0.030-0.010c-7.084-3.279-16.877 1.015-22.238 5.393-2.327 1.901-5.232 4.913-3.898 8.086 1.448 3.437 5.885 5.199 8.773 7.301-2.336 1.164-5.26 2.362-6.775 4.539-0.532 0.655-0.855 1.5-0.855 2.419 0 0.571 0.124 1.114 0.348 1.601l-0.010-0.024c1.143 2.506 5.301 1.422 7.052 0.315 1.528-0.908 2.658-2.35 3.143-4.063l0.012-0.049c0.158-0.533 0.248-1.145 0.248-1.778 0-0.988-0.221-1.924-0.616-2.762l0.017 0.040 2.599-1.315c-0.699 2.098-1.008 4.727 0.443 6.624 0.346 0.361 0.833 0.586 1.371 0.586 0.525 0 1-0.213 1.344-0.557l0-0c0.71-0.977 1.335-2.090 1.825-3.275l0.039-0.108c-0.050 0.294-0.078 0.632-0.078 0.977 0 0.563 0.076 1.108 0.218 1.626l-0.010-0.043c0.147 0.473 0.581 0.81 1.093 0.81 0.31 0 0.591-0.123 0.797-0.324l-0 0c2.411-1.655 3.945-6.241 5.133-8.915 0.322 1.258 0.756 2.359 1.307 3.387l-0.039-0.080c0.060 0.079 0.097 0.18 0.097 0.289 0 0.146-0.065 0.277-0.168 0.365l-0.001 0.001c-0.881 0.971-2.984 2.586-3.188 3.899-0.003 0.023-0.005 0.051-0.005 0.078 0 0.303 0.226 0.554 0.519 0.591l0.003 0c0.244 0.037 0.524 0.058 0.81 0.058 1.248 0 2.403-0.399 3.344-1.076l-0.017 0.012c0.843-0.509 1.399-1.42 1.399-2.461 0-0.275-0.039-0.54-0.111-0.792l0.005 0.020c-0.416-1.888 0.999-3.998 2.345-5.548 0.236 1.256 0.684 2.373 1.309 3.368l-0.024-0.040c-1.188 1.043-2.962 2.524-2.707 4.267 0.069 0.522 0.512 0.921 1.048 0.921 0.097 0 0.191-0.013 0.28-0.037l-0.007 0.002c1.432-0.254 2.663-0.978 3.557-2.003l0.006-0.007c0.333-0.479 0.532-1.073 0.532-1.713 0-0.526-0.134-1.020-0.37-1.451l0.008 0.016c0.976-0.324 2.099-0.51 3.265-0.51s2.29 0.187 3.341 0.532l-0.076-0.021c1.030 0.306 1.867 0.984 2.376 1.873l0.010 0.020c0.183 0.305 0.292 0.673 0.292 1.067 0 0.834-0.488 1.554-1.193 1.891l-0.013 0.005c-0.299 0.191-0.506 0.349-0.405 0.431s0.446 0.193 1.208-0.287c0.717-0.413 1.222-1.125 1.345-1.961l0.002-0.015c0.012-0.108 0.019-0.233 0.019-0.359 0-0.122-0.007-0.243-0.019-0.362l0.001 0.015zM10.268 24.942c-0.146 1.537-0.936 2.865-2.092 3.728l-0.014 0.010c-0.657 0.567-1.479 0.959-2.385 1.096l-0.026 0.003c-0.856 0.083-1.523-0.129-1.58-1.021-0.16-2.499 3.72-4.948 5.875-5.689 0.148 0.455 0.233 0.978 0.233 1.521 0 0.124-0.004 0.246-0.013 0.368l0.001-0.016zM19.641 18.356c-0.354 2.029-1.349 5.668-2.938 7.121-0.215 0.195-0.419 0.184-0.527-0.070-0.94-2.188 0.334-6.697 3.007-7.393 0.314-0.081 0.508 0.054 0.458 0.341zM26.033 25.789q1.148-1.222 2.298-2.447c0.094 0.912-1.598 2.724-2.298 2.447zM33.37 24.18c-0.213 0.116-0.693 0.229-0.711 0.076-0.129-1.099 1.074-2.261 1.824-2.806 0.083 0.223 0.132 0.48 0.132 0.749 0 0.867-0.502 1.617-1.232 1.975l-0.013 0.006z"></path>
</symbol>
<symbol id="icon-vk" viewBox="0 0 56 32">
<path d="M49.272 21.377c-1.066-0.998-1.953-1.598-2.309-2.559-0.089-0.207-0.141-0.449-0.141-0.702 0-0.087 0.006-0.172 0.018-0.256l-0.001 0.010c0.050-0.749 0.687-1.723 4.944-7.354 1.776-2.348 4.085-5.182 4.085-7.304 0-1.373-0.561-1.71-2.598-1.71h-9.235c-0.812 0-1.36 1.112-1.698 2.048-0.913 2.189-1.805 3.987-2.796 5.721l0.132-0.251c-1.239 2.58-2.925 4.757-4.978 6.519l-0.026 0.022c-0.146 0.072-0.318 0.115-0.5 0.115-0.066 0-0.131-0.006-0.194-0.016l0.007 0.001c-0.319-0.048-0.59-0.217-0.772-0.459l-0.002-0.003c-0.288-0.355-0.737-0.961-0.561-6.731 0.099-3.221 0.462-5.47-0.213-6.843-0.16-0.271-0.362-0.499-0.6-0.683l-0.006-0.004c-1.496-0.613-3.232-0.969-5.051-0.969-0.332 0-0.661 0.012-0.987 0.035l0.044-0.003c-0.128-0.003-0.279-0.005-0.43-0.005-1.62 0-3.194 0.196-4.7 0.565l0.135-0.028c-0.945 0.276-1.746 0.799-2.355 1.493l-0.005 0.006c-0.313 0.412 0.533 0.201 1.36 0.574 0.602 0.209 1.090 0.62 1.393 1.149l0.007 0.012c0.627 1.561 0.99 3.37 0.99 5.265 0 1.086-0.119 2.143-0.346 3.161l0.018-0.096c-0.090 1.172-0.384 2.254-0.848 3.241l0.024-0.056c-0.208 0.262-0.527 0.428-0.884 0.428-0.108 0-0.212-0.015-0.31-0.043l0.008 0.002c-2.010-0.613-3.571-3.246-5.15-6.331-1.636-3.221-2.472-5.482-2.921-6.406-0.356-0.845-1.177-1.427-2.134-1.427-0.058 0-0.115 0.002-0.172 0.006l0.008-0h-8.285c-0.005-0-0.011-0-0.017-0-0.642 0-1.17 0.492-1.226 1.12l-0 0.005c0 1.373 2.323 5.369 3.729 8.242 2.84 5.746 6.274 10.688 10.325 15.049l-0.036-0.039c3.298 3.534 7.894 5.819 13.025 6.091l0.048 0.002c0.222 0.006 0.483 0.009 0.744 0.009 1.203 0 2.389-0.071 3.554-0.209l-0.141 0.014c0.271-0.056 0.51-0.165 0.715-0.316l-0.005 0.004c0.888-0.687 0.725-1.998 0.787-3.019-0.002-0.062-0.004-0.135-0.004-0.209 0-1.126 0.327-2.176 0.891-3.060l-0.014 0.023c0.317-0.46 0.84-0.757 1.433-0.757 0.328 0 0.636 0.091 0.898 0.25l-0.008-0.004c0.842 0.505 1.554 1.133 2.135 1.87l0.013 0.016c1.202 1.475 2.481 2.791 3.867 3.987l0.040 0.034c0.639 0.465 1.383 0.837 2.184 1.074l0.051 0.013c0.71 0.202 1.525 0.318 2.367 0.318 0.28 0 0.557-0.013 0.831-0.038l-0.035 0.003c1.211-0.050 2.131-0.037 3.621-0.037 0.318 0.037 0.687 0.058 1.060 0.058 1.099 0 2.155-0.181 3.142-0.515l-0.069 0.020c0.454-0.299 0.75-0.806 0.75-1.383 0-0.010-0-0.021-0-0.031l0 0.002c0-1.488-1.524-3.959-6.619-8.716z"></path>
</symbol>
<symbol id="icon-face" viewBox="0 0 32 32">
<path fill="#e7e8ed" style="fill: var(--color3, #e7e8ed)" d="M32 16c0 8.837-7.163 16-16 16s-16-7.163-16-16c0-8.837 7.163-16 16-16s16 7.163 16 16z"></path>
<path fill="#000" style="fill: var(--color4, #000)" d="M20.25 17.013l0.52-3.383h-3.246v-2.195c-0.004-0.045-0.007-0.098-0.007-0.151 0-0.934 0.757-1.691 1.691-1.691 0.078 0 0.155 0.005 0.231 0.016l-0.009-0.001h1.476v-2.881c-0.779-0.133-1.684-0.215-2.606-0.229l-0.013-0c-2.674 0-4.421 1.62-4.421 4.554v2.578h-2.972v3.383h2.972v8.178h3.658v-8.178z"></path>
</symbol>
<symbol id="icon-insta" viewBox="0 0 32 32">
<path fill="#e7e8ed" style="fill: var(--color3, #e7e8ed)" d="M32 16c0 8.837-7.163 16-16 16s-16-7.163-16-16c0-8.837 7.163-16 16-16s16 7.163 16 16z"></path>
<path fill="#000" style="fill: var(--color4, #000)" d="M15.668 11.987c-2.219 0-4.017 1.798-4.017 4.017s1.798 4.017 4.017 4.017c2.219 0 4.017-1.798 4.017-4.017v0c0-0.002 0-0.004 0-0.006 0-2.215-1.796-4.011-4.011-4.011-0.002 0-0.004 0-0.006 0h0zM15.668 18.616c-1.442 0-2.612-1.169-2.612-2.612s1.169-2.612 2.612-2.612c1.442 0 2.612 1.169 2.612 2.612v0c-0.003 1.441-1.171 2.608-2.611 2.611h-0zM20.786 11.821c0 0.517-0.419 0.937-0.937 0.937s-0.937-0.419-0.937-0.937c0-0.517 0.419-0.937 0.937-0.937v0c0.001 0 0.001 0 0.002 0 0.516 0 0.935 0.419 0.935 0.935 0 0.001 0 0.001 0 0.002v-0zM23.446 12.774c0.001-0.029 0.001-0.064 0.001-0.098 0-1.234-0.482-2.356-1.269-3.187l0.002 0.002c-0.833-0.784-1.959-1.267-3.197-1.267-0.030 0-0.061 0-0.091 0.001l0.005-0c-1.294-0.074-5.171-0.074-6.464 0-0.028-0.001-0.061-0.001-0.093-0.001-1.235 0-2.358 0.48-3.192 1.265l0.002-0.002c-0.784 0.831-1.266 1.954-1.266 3.19 0 0.033 0 0.065 0.001 0.098l-0-0.005c-0.074 1.294-0.074 5.171 0 6.464-0.001 0.029-0.001 0.064-0.001 0.099 0 1.234 0.482 2.355 1.268 3.186l-0.002-0.002c0.834 0.784 1.96 1.266 3.199 1.266 0.030 0 0.059-0 0.089-0.001l-0.004 0c1.294 0.074 5.171 0.074 6.464 0 0.029 0.001 0.064 0.001 0.098 0.001 1.234 0 2.356-0.482 3.187-1.269l-0.002 0.002c0.784-0.833 1.267-1.959 1.267-3.197 0-0.030-0-0.061-0.001-0.091l0 0.005c0.074-1.294 0.074-5.167 0-6.461zM21.776 20.622c-0.275 0.683-0.806 1.214-1.471 1.483l-0.018 0.006c-1.032 0.409-3.478 0.315-4.618 0.315s-3.591 0.091-4.618-0.315c-0.683-0.275-1.214-0.806-1.483-1.471l-0.006-0.018c-0.409-1.032-0.315-3.478-0.315-4.618s-0.092-3.591 0.313-4.618c0.275-0.684 0.806-1.215 1.472-1.483l0.018-0.006c1.031-0.409 3.478-0.315 4.618-0.315s3.591-0.091 4.618 0.315c0.683 0.275 1.214 0.806 1.483 1.471l0.006 0.018c0.409 1.031 0.315 3.478 0.315 4.618s0.095 3.591-0.314 4.619z"></path>
</symbol>
<symbol id="icon-twit" viewBox="0 0 32 32">
<path fill="#e7e8ed" style="fill: var(--color3, #e7e8ed)" d="M32 16c0 8.837-7.163 16-16 16s-16-7.163-16-16c0-8.837 7.163-16 16-16s16 7.163 16 16z"></path>
<path fill="#000" style="fill: var(--color4, #000)" d="M23.032 12.2c0.012 0.161 0.012 0.321 0.012 0.482 0 0.021 0 0.047 0 0.072 0 5.783-4.688 10.472-10.472 10.472-0.026 0-0.051-0-0.077-0l0.004 0c-0.008 0-0.018 0-0.027 0-2.104 0-4.063-0.62-5.704-1.688l0.040 0.025c0.251 0.029 0.542 0.046 0.837 0.046 0.020 0 0.040-0 0.061-0l-0.003 0c0.006 0 0.012 0 0.019 0 1.736 0 3.333-0.596 4.597-1.595l-0.016 0.012c-1.615-0.030-2.975-1.087-3.457-2.544l-0.008-0.026c0.209 0.035 0.452 0.056 0.698 0.057h0.002c0.347-0.001 0.683-0.047 1.002-0.132l-0.027 0.006c-1.707-0.354-2.972-1.846-2.972-3.633 0-0.001 0-0.003 0-0.004v0-0.046c0.483 0.274 1.056 0.446 1.668 0.47l0.007 0c-1.002-0.675-1.652-1.805-1.652-3.088 0-0.689 0.188-1.333 0.514-1.886l-0.009 0.017c1.836 2.249 4.552 3.719 7.615 3.88l0.026 0.001c-0.057-0.255-0.090-0.547-0.092-0.848v-0.001c0-0 0-0.001 0-0.001 0-2.049 1.661-3.709 3.709-3.709 1.066 0 2.027 0.45 2.704 1.17l0.002 0.002c0.887-0.174 1.675-0.485 2.385-0.913l-0.033 0.018c-0.287 0.871-0.863 1.582-1.613 2.033l-0.017 0.009c0.791-0.092 1.512-0.294 2.181-0.593l-0.047 0.019c-0.517 0.746-1.133 1.38-1.837 1.9l-0.022 0.015z"></path>
</symbol>
<symbol id="icon-telegram" viewBox="0 0 32 32">
<path fill="#e7e8ed" style="fill: var(--color3, #e7e8ed)" d="M32 16c0 8.837-7.163 16-16 16s-16-7.163-16-16c0-8.837 7.163-16 16-16s16 7.163 16 16z"></path>
<path fill="#000" style="fill: var(--color4, #000)" d="M24.616 10.149l-2.71 12.78c-0.204 0.902-0.737 1.127-1.498 0.701l-4.129-3.043-1.992 1.916c-0.191 0.247-0.488 0.405-0.822 0.405-0.003 0-0.005 0-0.008-0h0l0.297-4.206 7.657-6.915c0.333-0.297-0.072-0.461-0.517-0.164l-9.464 5.957-4.070-1.275c-0.885-0.276-0.902-0.885 0.184-1.311l15.932-6.138c0.737-0.276 1.383 0.164 1.142 1.294z"></path>
</symbol>
<symbol id="icon-notification" viewBox="0 0 20 20">
<path d="M4 8c0-0.001 0-0.002 0-0.003 0-2.608 1.664-4.827 3.988-5.654l0.042-0.013c-0.016-0.095-0.025-0.204-0.025-0.315 0-1.105 0.895-2 2-2s2 0.895 2 2c0 0.111-0.009 0.22-0.027 0.327l0.002-0.012c2.361 0.843 4.020 3.060 4.020 5.664 0 0.002 0 0.004 0 0.006v-0 6l3 2v1h-18v-1l3-2v-6zM12 18c0 1.105-0.895 2-2 2s-2-0.895-2-2v0h4z"></path>
</symbol>
<symbol id="icon-calendar" viewBox="0 0 20 20">
<path d="M17 3h-1v2h-3v-2h-6v2h-3v-2h-1c-1.101 0-2 0.9-2 2v12c0 1.1 0.899 2 2 2h14c1.1 0 2-0.9 2-2v-12c0-1.1-0.9-2-2-2zM17 17h-14v-8h14v8zM6.5 1h-2v3.5h2v-3.5zM15.5 1h-2v3.5h2v-3.5z"></path>
</symbol>
<symbol id="icon-bargraph" viewBox="0 0 36 32">
<path d="M26 10.5v20c0 0.176 0.036 0.343 0.092 0.5h-3.184c0.056-0.157 0.092-0.324 0.092-0.5v-29c0-0.827-0.673-1.5-1.5-1.5h-7c-0.827 0-1.5 0.673-1.5 1.5v29c0 0.176 0.036 0.343 0.092 0.5h-3.184c0.056-0.157 0.092-0.324 0.092-0.5v-11c0-0.827-0.673-1.5-1.5-1.5h-7c-0.827 0-1.5 0.673-1.5 1.5v11c0 0.827 0.673 1.5 1.5 1.5h33c0.827 0 1.5-0.673 1.5-1.5v-20c0-0.827-0.673-1.5-1.5-1.5h-7c-0.827 0-1.5 0.673-1.5 1.5zM5 31h-3.5c-0.275 0-0.5-0.224-0.5-0.5v-11c0-0.276 0.225-0.5 0.5-0.5h7c0.275 0 0.5 0.224 0.5 0.5v11c0 0.276-0.225 0.5-0.5 0.5h-3.5zM14.5 31c-0.275 0-0.5-0.224-0.5-0.5v-29c0-0.276 0.225-0.5 0.5-0.5h7c0.275 0 0.5 0.224 0.5 0.5v29c0 0.276-0.225 0.5-0.5 0.5h-7zM35 10.5v20c0 0.276-0.225 0.5-0.5 0.5h-7c-0.275 0-0.5-0.224-0.5-0.5v-20c0-0.276 0.225-0.5 0.5-0.5h7c0.275 0 0.5 0.224 0.5 0.5z"></path>
</symbol>
<symbol id="icon-heart" viewBox="0 0 16 16">
<path d="M16 6c0 4.437-8 10-8 10s-8-5.563-8-10c-0.009-0.442 0.037-0.938 0-1.5-0.165-2.479 2.015-4.5 4.5-4.5 1.423 0 2.676 0.97 3.5 2 0.824-1.030 2.077-2 3.5-2 2.485 0 4.665 2.021 4.5 4.5-0.037 0.562 0.009 1.058 0 1.5zM14 4.5c0.124-1.375-1.119-2.5-2.5-2.5-2.591 0-2.5 2-2.5 2 0 0.553-0.447 1-1 1s-1-0.447-1-1c0 0 0.091-2-2.5-2-1.381 0-2.624 1.125-2.5 2.5 0.051 0.564-0.032 1.082 0.014 1.5-0.001 0-0.012 0-0.014 0 0.063-0.015-0.344 2.946 5.988 7.476 0.005-0.003 0.008-0.006 0.012-0.009 0.004 0.003 0.007 0.006 0.012 0.009 6.332-4.529 5.926-7.49 5.988-7.476-0.002 0-0.013 0-0.014 0 0.046-0.418-0.037-0.936 0.014-1.5z"></path>
</symbol>
<symbol id="icon-book" viewBox="0 0 14 16">
<path d="M2 0c-1.1 0-2 0.9-2 2v12c0 1.1 0.9 2 2 2h12v-16h-12zM12 14h-8v-12h2v4l2-2 2 2v-4h2v12z"></path>
</symbol>
<symbol id="icon-book-alt2" viewBox="0 0 16 16">
<path d="M8 3c0 0-2-2-8-2v12c6.063 0 8 2 8 2s1.938-2 8-2v-12c-6 0-8 2-8 2zM2 3c2.542 0.213 4.101 0.801 5 1.277v8.055c-0.899-0.475-2.458-1.063-5-1.277v-8.055zM14 11.055c-2.543 0.215-4.101 0.802-5 1.277v-8.055c0.899-0.477 2.457-1.064 5-1.277v8.055z"></path>
</symbol>
<symbol id="icon-clock" viewBox="0 0 16 16">
<path d="M10.293 11.707l-3.293-3.293v-4.414h2v3.586l2.707 2.707zM8 0c-4.418 0-8 3.582-8 8s3.582 8 8 8 8-3.582 8-8-3.582-8-8-8zM8 14c-3.314 0-6-2.686-6-6s2.686-6 6-6c3.314 0 6 2.686 6 6s-2.686 6-6 6z"></path>
</symbol>
<symbol id="icon-search" viewBox="0 0 16 16">
<path d="M15.504 13.616l-3.79-3.223c-0.392-0.353-0.811-0.514-1.149-0.499 0.895-1.048 1.435-2.407 1.435-3.893 0-3.314-2.686-6-6-6s-6 2.686-6 6 2.686 6 6 6c1.486 0 2.845-0.54 3.893-1.435-0.016 0.338 0.146 0.757 0.499 1.149l3.223 3.79c0.552 0.613 1.453 0.665 2.003 0.115s0.498-1.452-0.115-2.003zM6 10c-2.209 0-4-1.791-4-4s1.791-4 4-4 4 1.791 4 4-1.791 4-4 4z"></path>
</symbol>
<symbol id="icon-cog" viewBox="0 0 16 16">
<path d="M14.59 9.535c-0.839-1.454-0.335-3.317 1.127-4.164l-1.572-2.723c-0.449 0.263-0.972 0.414-1.529 0.414-1.68 0-3.042-1.371-3.042-3.062h-3.145c0.004 0.522-0.126 1.051-0.406 1.535-0.839 1.454-2.706 1.948-4.17 1.106l-1.572 2.723c0.453 0.257 0.845 0.634 1.123 1.117 0.838 1.452 0.336 3.311-1.12 4.16l1.572 2.723c0.448-0.261 0.967-0.41 1.522-0.41 1.675 0 3.033 1.362 3.042 3.046h3.145c-0.001-0.517 0.129-1.040 0.406-1.519 0.838-1.452 2.7-1.947 4.163-1.11l1.572-2.723c-0.45-0.257-0.839-0.633-1.116-1.113zM8 11.24c-1.789 0-3.24-1.45-3.24-3.24s1.45-3.24 3.24-3.24c1.789 0 3.24 1.45 3.24 3.24s-1.45 3.24-3.24 3.24z"></path>
</symbol>
<symbol id="icon-facebook" viewBox="0 0 16 16">
<path d="M9.5 3h2.5v-3h-2.5c-1.93 0-3.5 1.57-3.5 3.5v1.5h-2v3h2v8h3v-8h2.5l0.5-3h-3v-1.5c0-0.271 0.229-0.5 0.5-0.5z"></path>
</symbol>
<symbol id="icon-instagram" viewBox="0 0 16 16">
<path d="M8 1.441c2.137 0 2.391 0.009 3.231 0.047 0.781 0.034 1.203 0.166 1.484 0.275 0.372 0.144 0.641 0.319 0.919 0.597 0.281 0.281 0.453 0.547 0.6 0.919 0.109 0.281 0.241 0.706 0.275 1.484 0.037 0.844 0.047 1.097 0.047 3.231s-0.009 2.391-0.047 3.231c-0.034 0.781-0.166 1.203-0.275 1.484-0.144 0.372-0.319 0.641-0.597 0.919-0.281 0.281-0.547 0.453-0.919 0.6-0.281 0.109-0.706 0.241-1.484 0.275-0.844 0.037-1.097 0.047-3.231 0.047s-2.391-0.009-3.231-0.047c-0.781-0.034-1.203-0.166-1.484-0.275-0.372-0.144-0.641-0.319-0.919-0.597-0.281-0.281-0.453-0.547-0.6-0.919-0.109-0.281-0.241-0.706-0.275-1.484-0.038-0.844-0.047-1.097-0.047-3.231s0.009-2.391 0.047-3.231c0.034-0.781 0.166-1.203 0.275-1.484 0.144-0.372 0.319-0.641 0.597-0.919 0.281-0.281 0.547-0.453 0.919-0.6 0.281-0.109 0.706-0.241 1.484-0.275 0.841-0.038 1.094-0.047 3.231-0.047zM8 0c-2.172 0-2.444 0.009-3.297 0.047-0.85 0.038-1.434 0.175-1.941 0.372-0.528 0.206-0.975 0.478-1.419 0.925-0.447 0.444-0.719 0.891-0.925 1.416-0.197 0.509-0.334 1.091-0.372 1.941-0.037 0.856-0.047 1.128-0.047 3.3s0.009 2.444 0.047 3.297c0.038 0.85 0.175 1.434 0.372 1.941 0.206 0.528 0.478 0.975 0.925 1.419 0.444 0.444 0.891 0.719 1.416 0.922 0.509 0.197 1.091 0.334 1.941 0.372 0.853 0.037 1.125 0.047 3.297 0.047s2.444-0.009 3.297-0.047c0.85-0.037 1.434-0.175 1.941-0.372 0.525-0.203 0.972-0.478 1.416-0.922s0.719-0.891 0.922-1.416c0.197-0.509 0.334-1.091 0.372-1.941 0.037-0.853 0.047-1.125 0.047-3.297s-0.009-2.444-0.047-3.297c-0.037-0.85-0.175-1.434-0.372-1.941-0.197-0.531-0.469-0.978-0.916-1.422-0.444-0.444-0.891-0.719-1.416-0.922-0.509-0.197-1.091-0.334-1.941-0.372-0.856-0.041-1.128-0.050-3.3-0.050v0z"></path>
<path d="M8 3.891c-2.269 0-4.109 1.841-4.109 4.109s1.841 4.109 4.109 4.109 4.109-1.841 4.109-4.109c0-2.269-1.841-4.109-4.109-4.109zM8 10.666c-1.472 0-2.666-1.194-2.666-2.666s1.194-2.666 2.666-2.666c1.472 0 2.666 1.194 2.666 2.666s-1.194 2.666-2.666 2.666z"></path>
<path d="M13.231 3.728c0 0.53-0.43 0.959-0.959 0.959s-0.959-0.43-0.959-0.959c0-0.53 0.43-0.959 0.959-0.959s0.959 0.43 0.959 0.959z"></path>
</symbol>
<symbol id="icon-twitter" viewBox="0 0 16 16">
<path d="M16 3.538c-0.588 0.263-1.222 0.438-1.884 0.516 0.678-0.406 1.197-1.050 1.444-1.816-0.634 0.375-1.338 0.65-2.084 0.797-0.6-0.638-1.453-1.034-2.397-1.034-1.813 0-3.281 1.469-3.281 3.281 0 0.256 0.028 0.506 0.084 0.747-2.728-0.138-5.147-1.444-6.766-3.431-0.281 0.484-0.444 1.050-0.444 1.65 0 1.138 0.578 2.144 1.459 2.731-0.538-0.016-1.044-0.166-1.488-0.409 0 0.013 0 0.028 0 0.041 0 1.591 1.131 2.919 2.634 3.219-0.275 0.075-0.566 0.116-0.866 0.116-0.212 0-0.416-0.022-0.619-0.059 0.419 1.303 1.631 2.253 3.066 2.281-1.125 0.881-2.538 1.406-4.078 1.406-0.266 0-0.525-0.016-0.784-0.047 1.456 0.934 3.181 1.475 5.034 1.475 6.037 0 9.341-5.003 9.341-9.341 0-0.144-0.003-0.284-0.009-0.425 0.641-0.459 1.197-1.038 1.637-1.697z"></path>
</symbol>
<symbol id="icon-library_books" viewBox="0 0 24 24">
<path d="M18.984 6.984v-1.969h-9.984v1.969h9.984zM15 15v-2.016h-6v2.016h6zM18.984 11.016v-2.016h-9.984v2.016h9.984zM20.016 2.016q0.797 0 1.383 0.586t0.586 1.383v12q0 0.797-0.586 1.406t-1.383 0.609h-12q-0.797 0-1.406-0.609t-0.609-1.406v-12q0-0.797 0.609-1.383t1.406-0.586h12zM3.984 6v14.016h14.016v1.969h-14.016q-0.797 0-1.383-0.586t-0.586-1.383v-14.016h1.969z"></path>
</symbol>
<symbol id="icon-mail_outline" viewBox="0 0 24 24">
<path d="M12 11.016l8.016-5.016h-16.031zM20.016 18v-9.984l-8.016 4.969-8.016-4.969v9.984h16.031zM20.016 3.984q0.797 0 1.383 0.609t0.586 1.406v12q0 0.797-0.586 1.406t-1.383 0.609h-16.031q-0.797 0-1.383-0.609t-0.586-1.406v-12q0-0.797 0.586-1.406t1.383-0.609h16.031z"></path>
</symbol>
<symbol id="icon-dashboard" viewBox="0 0 24 24">
<path d="M12.984 3h8.016v6h-8.016v-6zM12.984 21v-9.984h8.016v9.984h-8.016zM3 21v-6h8.016v6h-8.016zM3 12.984v-9.984h8.016v9.984h-8.016z"></path>
</symbol>
<symbol id="icon-compare_arrows" viewBox="0 0 24 24">
<path d="M15 12.984l-3.984-3.984 3.984-3.984v3h6.984v1.969h-6.984v3zM9 14.016v-3l3.984 3.984-3.984 3.984v-3h-6.984v-1.969h6.984z"></path>
</symbol>
<symbol id="icon-account_balance_wallet" viewBox="0 0 24 24">
<path d="M15.984 13.5q0.609 0 1.055-0.422t0.445-1.078-0.445-1.078-1.055-0.422-1.055 0.422-0.445 1.078 0.445 1.078 1.055 0.422zM12 15.984v-7.969h9.984v7.969h-9.984zM21 18v0.984q0 0.797-0.609 1.406t-1.406 0.609h-13.969q-0.844 0-1.43-0.586t-0.586-1.43v-13.969q0-0.844 0.586-1.43t1.43-0.586h13.969q0.797 0 1.406 0.609t0.609 1.406v0.984h-9q-0.844 0-1.43 0.586t-0.586 1.43v7.969q0 0.844 0.586 1.43t1.43 0.586h9z"></path>
</symbol>
<symbol id="icon-keyboard_arrow_down" viewBox="0 0 24 24">
<path d="M7.406 8.578l4.594 4.594 4.594-4.594 1.406 1.406-6 6-6-6z"></path>
</symbol>
<symbol id="icon-telegram1" viewBox="0 0 28 28">
<path d="M18.578 20.422l2.297-10.828c0.203-0.953-0.344-1.328-0.969-1.094l-13.5 5.203c-0.922 0.359-0.906 0.875-0.156 1.109l3.453 1.078 8.016-5.047c0.375-0.25 0.719-0.109 0.438 0.141l-6.484 5.859-0.25 3.563c0.359 0 0.516-0.156 0.703-0.344l1.687-1.625 3.5 2.578c0.641 0.359 1.094 0.172 1.266-0.594zM28 14c0 7.734-6.266 14-14 14s-14-6.266-14-14 6.266-14 14-14 14 6.266 14 14z"></path>
</symbol>
<symbol id="icon-user-plus" viewBox="0 0 32 28">
<path d="M11 14c-3.313 0-6-2.688-6-6s2.688-6 6-6 6 2.688 6 6-2.688 6-6 6zM26 16h5.5c0.266 0 0.5 0.234 0.5 0.5v3c0 0.266-0.234 0.5-0.5 0.5h-5.5v5.5c0 0.266-0.234 0.5-0.5 0.5h-3c-0.266 0-0.5-0.234-0.5-0.5v-5.5h-5.5c-0.266 0-0.5-0.234-0.5-0.5v-3c0-0.266 0.234-0.5 0.5-0.5h5.5v-5.5c0-0.266 0.234-0.5 0.5-0.5h3c0.266 0 0.5 0.234 0.5 0.5v5.5zM14.5 19.5c0 1.094 0.906 2 2 2h4v3.719c-0.766 0.562-1.734 0.781-2.672 0.781h-13.656c-2.5 0-4.172-1.5-4.172-4.047 0-3.531 0.828-8.953 5.406-8.953 0.25 0 0.422 0.109 0.609 0.266 1.531 1.172 3.016 1.906 4.984 1.906s3.453-0.734 4.984-1.906c0.187-0.156 0.359-0.266 0.609-0.266 1.328 0 2.5 0.5 3.391 1.5h-3.484c-1.094 0-2 0.906-2 2v3z"></path>
</symbol>
</defs>
</svg>
